<?xml version="1.0" encoding="UTF-8" standalone="no"?>
<!-- Created with Inkscape (http://www.inkscape.org/) -->

<svg
   viewBox="0 0 195.10303 302.04803"
   version="1.1"
   id="svg1"
   xml:space="preserve"
   xmlns="http://www.w3.org/2000/svg"
   xmlns:svg="http://www.w3.org/2000/svg"><defs
     id="defs1" /><g
     id="layer1"
     style="display:inline"
     transform="translate(-6.5157135,-26.445363)"><path
       fill="#00aeef"
       d="m 103.85032,328.32691 c 0,0.0555 0.11098,0.16649 0.11098,0.16649 0,0 94.88337,-151.05814 97.50893,-200.04357 C 204.81919,65.96773 150.89149,29.076733 103.85032,26.445363 57.286496,28.49669 6.5256481,65.487589 6.5157139,128.87779 6.5088066,172.95354 103.79482,328.4934 103.79482,328.4934 Z M 70.166104,126.05517 c 0,-18.64562 15.094077,-33.739698 33.739706,-33.739698 18.64562,0 33.7397,15.094078 33.7397,33.739698 0,18.64563 -15.14957,33.7397 -33.79519,33.7397 -18.590139,0 -33.684216,-15.09407 -33.684216,-33.7397 z"
       id="path1-9"
       style="display:inline;fill:#2b5877;fill-opacity:1;stroke:none;stroke-width:0.55493;stroke-opacity:1" /><path
       style="display:inline;fill:#12afc0;fill-opacity:1;stroke:none;stroke-width:0.765;stroke-dasharray:none;stroke-opacity:1"
       id="path3"
       d="M 184.02017,123.53603 A 80.312675,80.312675 0 0 1 103.94124,203.84837 80.312675,80.312675 0 0 1 23.396182,124.00352 80.312675,80.312675 0 0 1 103.00628,43.226419 80.312675,80.312675 0 0 1 184.01473,122.60109" /><circle
       style="display:inline;fill:#d9cfac;fill-opacity:1;stroke:none;stroke-width:0.94169;stroke-dasharray:none;stroke-opacity:1"
       id="path2"
       cy="115.17728"
       cx="118.42199"
       r="27.744661" /><path
       id="path4"
       style="display:inline;fill:#2b5877;fill-opacity:1;stroke:none;stroke-width:0.94169;stroke-dasharray:none;stroke-opacity:1"
       d="m 89.013288,105.04381 a 26.866662,26.866662 0 0 0 -25.657905,18.97545 21.669597,21.669597 0 0 0 -4.576885,-0.49491 21.669597,21.669597 0 0 0 -21.669429,21.66944 21.669597,21.669597 0 0 0 21.669429,21.67005 21.669597,21.669597 0 0 0 0.146309,-0.0102 v 0.0127 h 57.302973 v -0.0337 a 17.425091,17.425091 0 0 0 17.42015,-17.42396 17.425091,17.425091 0 0 0 -17.42525,-17.42523 17.425091,17.425091 0 0 0 -0.34922,0.0249 26.866662,26.866662 0 0 0 0.007,-0.098 26.866662,26.866662 0 0 0 -26.867162,-26.86652 z" /><path
       id="path7"
       style="display:inline;fill:#f69a20;fill-opacity:1;stroke:none;stroke-width:0.94169;stroke-dasharray:none;stroke-opacity:1"
       d="m 118.5248,60.145172 c -1.88539,3.04e-4 -3.41375,1.52865 -3.41405,3.414056 -0.0213,6.260442 0.0473,16.343842 0.04,16.599553 -4e-5,1.823824 1.52881,3.41475 3.41471,3.414693 1.8859,4.9e-5 3.41475,-1.528789 3.41469,-3.414693 -1.8e-4,-0.0077 -4.1e-4,-0.01526 -6.4e-4,-0.0229 l -0.0534,-16.390269 c 0.0111,-1.328655 -0.97609,-3.600504 -3.40132,-3.600439 z" /><path
       id="path8"
       style="fill:#f29d15;fill-opacity:1;stroke:none;stroke-width:0.94169;stroke-dasharray:none;stroke-opacity:1"
       d="m 157.7118,76.146823 c -1.32648,-1.33985 -3.48787,-1.351042 -4.82815,-0.02498 -4.46462,4.388701 -11.58322,11.530487 -11.77008,11.7052 -1.29633,1.282917 -1.35164,3.488675 -0.025,4.82905 1.3266,1.34045 3.48867,1.351639 4.82904,0.02499 0.005,-0.0049 0.0111,-0.01108 0.0159,-0.01661 L 157.5454,81.096955 c 0.95214,-0.926755 1.88343,-3.215527 0.17738,-4.939237 z" /><path
       id="path9"
       style="fill:#f59726;fill-opacity:1;stroke:none;stroke-width:0.94169;stroke-dasharray:none;stroke-opacity:1"
       d="m 174.1509,115.18437 c -0.008,-1.88539 -1.54458,-3.40657 -3.42996,-3.39806 -6.26048,0.007 -16.34343,0.12368 -16.59919,0.11756 -1.8238,0.008 -3.40757,1.54474 -3.39871,3.43062 0.008,1.8859 1.54474,3.40756 3.43063,3.39869 0.007,-6e-5 0.0157,-1.5e-4 0.023,-7.4e-4 l 16.38984,-0.13005 c 1.32869,0.005 3.59589,-0.99292 3.5845,-3.41814 z" /><path
       id="path10"
       style="fill:#f59726;fill-opacity:1;stroke:none;stroke-width:0.94169;stroke-dasharray:none;stroke-opacity:1"
       d="m 157.82021,154.44142 c 1.33796,-1.32839 1.34516,-3.49015 0.0169,-4.82818 -4.39581,-4.45762 -11.55002,-11.56373 -11.72502,-11.75035 -1.28519,-1.29405 -3.49095,-1.34574 -4.82908,-0.0169 -1.33832,1.32874 -1.34576,3.49094 -0.0169,4.82907 0.005,0.005 0.0111,0.0111 0.0167,0.0159 l 11.58712,11.59236 c 0.92831,0.95061 3.22965,1.86699 4.95047,0.15804 z" /><path
       id="path11"
       style="fill:#f59726;fill-opacity:1;stroke:none;stroke-width:0.94169;stroke-dasharray:none;stroke-opacity:1"
       d="m 95.921528,92.937829 c 1.33797,-1.328383 1.34515,-3.490147 0.0169,-4.828171 -4.3958,-4.457628 -11.550016,-11.563733 -11.72501,-11.750348 -1.285204,-1.294054 -3.490949,-1.345743 -4.829085,-0.01686 -1.338321,1.328743 -1.345755,3.490937 -0.01686,4.829072 0.0049,0.0049 0.01108,0.01108 0.01674,0.01588 l 11.587095,11.592347 c 0.92832,0.950615 3.22965,1.866996 4.95049,0.158044 z" /></g></svg>